<svg width="801" height="200" viewBox="0 0 801 200" fill="none" xmlns="http://www.w3.org/2000/svg">
<g opacity="0.5">
<g style="mix-blend-mode:darken" opacity="0.05">
<path d="M17.339 60H29.9896L38.2252 22.5575L46.376 60H59.1115L75.4979 1.75616H63.7812L52.9984 45.2268L43.7439 1.75616H32.6216L23.3671 45.2268L12.6693 1.75616H0.867676L17.339 60Z" fill="#919191"/>
<path d="M96.5997 61.1886C110.439 61.1886 119.609 52.1888 119.609 38.7741C119.609 25.3593 110.439 16.3596 96.5997 16.3596C82.7604 16.3596 73.5908 25.3593 73.5908 38.7741C73.5908 52.1888 82.7604 61.1886 96.5997 61.1886ZM96.5997 52.1888C88.8735 52.1888 83.7793 46.8399 83.7793 38.7741C83.7793 30.7083 88.8735 25.3593 96.5997 25.3593C104.326 25.3593 109.42 30.7083 109.42 38.7741C109.42 46.8399 104.326 52.1888 96.5997 52.1888Z" fill="#919191"/>
<path d="M124.871 60H135.06V34.8685C135.06 29.18 139.56 25.3593 146.352 25.3593H149.833V17.5482C148.644 17.0388 146.861 16.6992 145.333 16.6992C141.427 16.6992 137.267 19.0765 135.06 22.5575V17.5482H124.871V60Z" fill="#919191"/>
<path d="M156.13 60H166.318V1.75616H156.13V60Z" fill="#919191"/>
<path d="M194.838 61.1886C200.017 61.1886 205.706 58.8113 208.932 55.3303V60H219.121V1.75616H208.932V22.2179C205.706 18.7369 200.017 16.3596 194.838 16.3596C181.424 16.3596 172.424 25.3593 172.424 38.7741C172.424 52.1888 181.424 61.1886 194.838 61.1886ZM195.857 52.1888C187.876 52.1888 182.612 46.8399 182.612 38.7741C182.612 30.7083 187.876 25.3593 195.857 25.3593C203.668 25.3593 208.932 30.7083 208.932 38.7741C208.932 46.8399 203.668 52.1888 195.857 52.1888Z" fill="#919191"/>
<path d="M226.938 26.9725C234.494 26.9725 239.504 21.8783 239.504 14.3219V1.75616H226.938V14.3219H231.353C231.353 16.9539 229.57 18.7369 226.938 18.7369V26.9725Z" fill="#919191"/>
<path d="M257.706 61.1886C269.508 61.1886 277.404 55.585 277.404 47.1795C277.404 39.4533 272.904 36.227 258.725 33.2554C252.697 31.8969 250.744 30.7932 250.744 29.0102C250.744 26.548 253.546 24.8499 257.706 24.8499C261.442 24.8499 264.838 26.8027 266.112 29.6894L275.451 27.397C272.989 20.7745 265.857 16.3596 257.706 16.3596C247.433 16.3596 240.556 21.6236 240.556 29.5196C240.556 36.5666 244.461 39.3684 256.772 42.1702C264.668 43.6985 267.215 45.1419 267.215 47.1795C267.215 50.4908 263.395 52.6983 257.706 52.6983C252.018 52.6983 247.942 49.8115 247.603 45.5664H238.008C238.348 54.9058 246.244 61.1886 257.706 61.1886Z" fill="#919191"/>
<path d="M331.75 17.5482H318.505V12.7936C318.505 10.2465 319.694 9.05786 322.241 9.05786H326.825V1.75616C325.467 1.07693 323.09 0.567505 320.797 0.567505C313.326 0.567505 308.317 5.49191 308.317 12.8785V17.5482H301.524V26.0386H308.317V60H318.505V26.0386H330.731V60H340.919V17.5482H331.75ZM330.731 1.75616V11.0955H340.919V1.75616H330.731Z" fill="#919191"/>
<path d="M348.738 60H358.926V34.8685C358.926 29.18 363.426 25.3593 370.218 25.3593H373.7V17.5482C372.511 17.0388 370.728 16.6992 369.2 16.6992C365.294 16.6992 361.134 19.0765 358.926 22.5575V17.5482H348.738V60Z" fill="#919191"/>
<path d="M393.767 61.1886C405.569 61.1886 413.465 55.585 413.465 47.1795C413.465 39.4533 408.965 36.227 394.786 33.2554C388.758 31.8969 386.805 30.7932 386.805 29.0102C386.805 26.548 389.607 24.8499 393.767 24.8499C397.503 24.8499 400.899 26.8027 402.173 29.6894L411.512 27.397C409.05 20.7745 401.918 16.3596 393.767 16.3596C383.494 16.3596 376.617 21.6236 376.617 29.5196C376.617 36.5666 380.522 39.3684 392.833 42.1702C400.729 43.6985 403.276 45.1419 403.276 47.1795C403.276 50.4908 399.456 52.6983 393.767 52.6983C388.079 52.6983 384.003 49.8115 383.664 45.5664H374.07C374.409 54.9058 382.305 61.1886 393.767 61.1886Z" fill="#919191"/>
<path d="M437.246 61.1886C440.048 61.1886 442.934 60.6792 444.463 60V52.6983H437.076C434.868 52.6983 433.34 51.2549 433.34 49.1323V26.0386H444.038V17.5482H433.34V1.75616H423.152V17.5482H416.36V26.0386H423.152V49.1323C423.152 56.3491 428.755 61.1886 437.246 61.1886Z" fill="#919191"/>
<path d="M490.666 61.1886C495.675 61.1886 501.194 58.8962 504.42 55.4152V60H514.609V17.5482H504.42V22.133C501.194 18.652 495.675 16.3596 490.666 16.3596C477.421 16.3596 468.591 25.3593 468.591 38.7741C468.591 52.1888 477.421 61.1886 490.666 61.1886ZM491.685 52.1888C483.959 52.1888 478.78 46.8399 478.78 38.7741C478.78 30.7083 483.959 25.3593 491.685 25.3593C499.326 25.3593 504.42 30.7083 504.42 38.7741C504.42 46.8399 499.326 52.1888 491.685 52.1888Z" fill="#919191"/>
<path d="M522.442 60H532.63V34.7836C532.63 29.0951 536.791 25.3593 542.989 25.3593C549.186 25.3593 553.347 29.0951 553.347 34.7836V60H563.535V33.595C563.535 23.2367 555.809 16.3596 544.177 16.3596C540.017 16.3596 535.432 18.0576 532.63 20.6896V17.5482H522.442V60Z" fill="#919191"/>
<path d="M591.248 61.1886C596.427 61.1886 602.116 58.8113 605.342 55.3303V60H615.531V1.75616H605.342V22.2179C602.116 18.7369 596.427 16.3596 591.248 16.3596C577.833 16.3596 568.834 25.3593 568.834 38.7741C568.834 52.1888 577.833 61.1886 591.248 61.1886ZM592.267 52.1888C584.286 52.1888 579.022 46.8399 579.022 38.7741C579.022 30.7083 584.286 25.3593 592.267 25.3593C600.078 25.3593 605.342 30.7083 605.342 38.7741C605.342 46.8399 600.078 52.1888 592.267 52.1888Z" fill="#919191"/>
<path d="M664.226 61.1886C678.065 61.1886 687.235 52.1888 687.235 38.7741C687.235 25.3593 678.065 16.3596 664.226 16.3596C650.387 16.3596 641.217 25.3593 641.217 38.7741C641.217 52.1888 650.387 61.1886 664.226 61.1886ZM664.226 52.1888C656.5 52.1888 651.406 46.8399 651.406 38.7741C651.406 30.7083 656.5 25.3593 664.226 25.3593C671.952 25.3593 677.046 30.7083 677.046 38.7741C677.046 46.8399 671.952 52.1888 664.226 52.1888Z" fill="#919191"/>
<path d="M692.498 60H702.686V34.7836C702.686 29.0951 706.846 25.3593 713.044 25.3593C719.242 25.3593 723.402 29.0951 723.402 34.7836V60H733.591V33.595C733.591 23.2367 725.865 16.3596 714.233 16.3596C710.073 16.3596 705.488 18.0576 702.686 20.6896V17.5482H692.498V60Z" fill="#919191"/>
<path d="M741.417 60H751.605V1.75616H741.417V60Z" fill="#919191"/>
<path d="M766.286 75.792H777.239L800.163 17.5482H789.21L778.767 44.2079L768.239 17.5482H757.371L773.588 57.2831L766.286 75.792Z" fill="#919191"/>
<path d="M3.9242 162H15.3013V119.548L43.9138 162H56.3946V103.756H45.0175V146.123L16.405 103.756H3.9242V162Z" fill="#919191"/>
<path d="M67.1873 162H78.5643V137.208H103.611V127.02H78.5643V113.945H106.667V103.756H67.1873V162Z" fill="#919191"/>
<path d="M128.214 162H139.591V113.945H156.402V103.756H111.403V113.945H128.214V162Z" fill="#919191"/>
<path d="M208.188 118.36C203.009 118.36 197.32 120.737 194.094 124.218V119.548H183.906V177.792H194.094V157.33C197.32 160.811 203.009 163.189 208.188 163.189C221.603 163.189 230.603 154.189 230.603 140.774C230.603 127.359 221.603 118.36 208.188 118.36ZM207.169 127.359C215.15 127.359 220.414 132.708 220.414 140.774C220.414 148.84 215.15 154.189 207.169 154.189C199.358 154.189 194.094 148.84 194.094 140.774C194.094 132.708 199.358 127.359 207.169 127.359Z" fill="#919191"/>
<path d="M277.815 119.548H267.626V144.765C267.626 150.453 263.466 154.189 257.268 154.189C251.07 154.189 246.91 150.453 246.91 144.765V119.548H236.722V145.953C236.722 156.311 244.448 163.189 256.08 163.189C260.24 163.189 264.825 161.491 267.626 158.859V162H277.815V119.548Z" fill="#919191"/>
<path d="M284.112 162H320.621V153H298.037L320.621 126.34V119.548H284.112V128.548H306.697L284.112 155.208V162Z" fill="#919191"/>
<path d="M325.403 162H361.912V153H339.328L361.912 126.34V119.548H325.403V128.548H347.988L325.403 155.208V162Z" fill="#919191"/>
<path d="M368.223 162H378.411V103.756H368.223V162Z" fill="#919191"/>
<path d="M407.526 163.189C417.884 163.189 426.714 156.906 429.516 147.566H419.157C417.205 151.812 412.535 154.698 407.526 154.698C400.903 154.698 395.809 150.283 394.875 143.576H429.685L430.534 142.727V140.774C430.534 127.359 421.365 118.36 407.526 118.36C393.686 118.36 384.517 127.359 384.517 140.774C384.517 154.189 393.686 163.189 407.526 163.189ZM395.554 135.086C397.507 129.822 401.837 126.85 407.526 126.85C413.214 126.85 417.544 129.822 419.497 135.086H395.554Z" fill="#919191"/>
</g>
<g opacity="0.05">
<path d="M17.339 67.0749H29.9896L38.2252 29.6325L46.376 67.0749H59.1115L75.4979 8.83111H63.7812L52.9984 52.3017L43.7439 8.83111H32.6216L23.3671 52.3017L12.6693 8.83111H0.867676L17.339 67.0749Z" fill="#919191"/>
<path d="M96.5997 68.2636C110.439 68.2636 119.609 59.2638 119.609 45.849C119.609 32.4343 110.439 23.4345 96.5997 23.4345C82.7604 23.4345 73.5908 32.4343 73.5908 45.849C73.5908 59.2638 82.7604 68.2636 96.5997 68.2636ZM96.5997 59.2638C88.8735 59.2638 83.7793 53.9149 83.7793 45.849C83.7793 37.7832 88.8735 32.4343 96.5997 32.4343C104.326 32.4343 109.42 37.7832 109.42 45.849C109.42 53.9149 104.326 59.2638 96.5997 59.2638Z" fill="#919191"/>
<path d="M124.871 67.0749H135.06V41.9435C135.06 36.2549 139.56 32.4343 146.352 32.4343H149.833V24.6232C148.644 24.1137 146.861 23.7741 145.333 23.7741C141.427 23.7741 137.267 26.1514 135.06 29.6325V24.6232H124.871V67.0749Z" fill="#919191"/>
<path d="M156.13 67.0749H166.318V8.83111H156.13V67.0749Z" fill="#919191"/>
<path d="M194.838 68.2636C200.017 68.2636 205.706 65.8863 208.932 62.4052V67.0749H219.121V8.83111H208.932V29.2929C205.706 25.8118 200.017 23.4345 194.838 23.4345C181.424 23.4345 172.424 32.4343 172.424 45.849C172.424 59.2638 181.424 68.2636 194.838 68.2636ZM195.857 59.2638C187.876 59.2638 182.612 53.9149 182.612 45.849C182.612 37.7832 187.876 32.4343 195.857 32.4343C203.668 32.4343 208.932 37.7832 208.932 45.849C208.932 53.9149 203.668 59.2638 195.857 59.2638Z" fill="#919191"/>
<path d="M226.938 34.0474C234.494 34.0474 239.504 28.9532 239.504 21.3968V8.83111H226.938V21.3968H231.353C231.353 24.0288 229.57 25.8118 226.938 25.8118V34.0474Z" fill="#919191"/>
<path d="M257.706 68.2636C269.508 68.2636 277.404 62.6599 277.404 54.2545C277.404 46.5283 272.904 43.3019 258.725 40.3303C252.697 38.9719 250.744 37.8681 250.744 36.0851C250.744 33.6229 253.546 31.9249 257.706 31.9249C261.442 31.9249 264.838 33.8776 266.112 36.7644L275.451 34.472C272.989 27.8495 265.857 23.4345 257.706 23.4345C247.433 23.4345 240.556 28.6985 240.556 36.5946C240.556 43.6415 244.461 46.4434 256.772 49.2452C264.668 50.7734 267.215 52.2168 267.215 54.2545C267.215 57.5657 263.395 59.7732 257.706 59.7732C252.018 59.7732 247.942 56.8865 247.603 52.6413H238.008C238.348 61.9807 246.244 68.2636 257.706 68.2636Z" fill="#919191"/>
<path d="M331.75 24.6232H318.505V19.8686C318.505 17.3215 319.694 16.1328 322.241 16.1328H326.825V8.83111C325.467 8.15188 323.09 7.64246 320.797 7.64246C313.326 7.64246 308.317 12.5669 308.317 19.9535V24.6232H301.524V33.1135H308.317V67.0749H318.505V33.1135H330.731V67.0749H340.919V24.6232H331.75ZM330.731 8.83111V18.1705H340.919V8.83111H330.731Z" fill="#919191"/>
<path d="M348.738 67.0749H358.926V41.9435C358.926 36.2549 363.426 32.4343 370.218 32.4343H373.7V24.6232C372.511 24.1137 370.728 23.7741 369.2 23.7741C365.294 23.7741 361.134 26.1514 358.926 29.6325V24.6232H348.738V67.0749Z" fill="#919191"/>
<path d="M393.767 68.2636C405.569 68.2636 413.465 62.6599 413.465 54.2545C413.465 46.5283 408.965 43.3019 394.786 40.3303C388.758 38.9719 386.805 37.8681 386.805 36.0851C386.805 33.6229 389.607 31.9249 393.767 31.9249C397.503 31.9249 400.899 33.8776 402.173 36.7644L411.512 34.472C409.05 27.8495 401.918 23.4345 393.767 23.4345C383.494 23.4345 376.617 28.6985 376.617 36.5946C376.617 43.6415 380.522 46.4434 392.833 49.2452C400.729 50.7734 403.276 52.2168 403.276 54.2545C403.276 57.5657 399.456 59.7732 393.767 59.7732C388.079 59.7732 384.003 56.8865 383.664 52.6413H374.07C374.409 61.9807 382.305 68.2636 393.767 68.2636Z" fill="#919191"/>
<path d="M437.246 68.2636C440.048 68.2636 442.934 67.7541 444.463 67.0749V59.7732H437.076C434.868 59.7732 433.34 58.3299 433.34 56.2073V33.1135H444.038V24.6232H433.34V8.83111H423.152V24.6232H416.36V33.1135H423.152V56.2073C423.152 63.4241 428.755 68.2636 437.246 68.2636Z" fill="#919191"/>
<path d="M490.666 68.2636C495.675 68.2636 501.194 65.9712 504.42 62.4901V67.0749H514.609V24.6232H504.42V29.208C501.194 25.7269 495.675 23.4345 490.666 23.4345C477.421 23.4345 468.591 32.4343 468.591 45.849C468.591 59.2638 477.421 68.2636 490.666 68.2636ZM491.685 59.2638C483.959 59.2638 478.78 53.9149 478.78 45.849C478.78 37.7832 483.959 32.4343 491.685 32.4343C499.326 32.4343 504.42 37.7832 504.42 45.849C504.42 53.9149 499.326 59.2638 491.685 59.2638Z" fill="#919191"/>
<path d="M522.442 67.0749H532.63V41.8586C532.63 36.17 536.791 32.4343 542.989 32.4343C549.186 32.4343 553.347 36.17 553.347 41.8586V67.0749H563.535V40.6699C563.535 30.3117 555.809 23.4345 544.177 23.4345C540.017 23.4345 535.432 25.1326 532.63 27.7646V24.6232H522.442V67.0749Z" fill="#919191"/>
<path d="M591.248 68.2636C596.427 68.2636 602.116 65.8863 605.342 62.4052V67.0749H615.531V8.83111H605.342V29.2929C602.116 25.8118 596.427 23.4345 591.248 23.4345C577.833 23.4345 568.834 32.4343 568.834 45.849C568.834 59.2638 577.833 68.2636 591.248 68.2636ZM592.267 59.2638C584.286 59.2638 579.022 53.9149 579.022 45.849C579.022 37.7832 584.286 32.4343 592.267 32.4343C600.078 32.4343 605.342 37.7832 605.342 45.849C605.342 53.9149 600.078 59.2638 592.267 59.2638Z" fill="#919191"/>
<path d="M664.226 68.2636C678.065 68.2636 687.235 59.2638 687.235 45.849C687.235 32.4343 678.065 23.4345 664.226 23.4345C650.387 23.4345 641.217 32.4343 641.217 45.849C641.217 59.2638 650.387 68.2636 664.226 68.2636ZM664.226 59.2638C656.5 59.2638 651.406 53.9149 651.406 45.849C651.406 37.7832 656.5 32.4343 664.226 32.4343C671.952 32.4343 677.046 37.7832 677.046 45.849C677.046 53.9149 671.952 59.2638 664.226 59.2638Z" fill="#919191"/>
<path d="M692.498 67.0749H702.686V41.8586C702.686 36.17 706.846 32.4343 713.044 32.4343C719.242 32.4343 723.402 36.17 723.402 41.8586V67.0749H733.591V40.6699C733.591 30.3117 725.865 23.4345 714.233 23.4345C710.073 23.4345 705.488 25.1326 702.686 27.7646V24.6232H692.498V67.0749Z" fill="#919191"/>
<path d="M741.417 67.0749H751.605V8.83111H741.417V67.0749Z" fill="#919191"/>
<path d="M766.286 82.867H777.239L800.163 24.6232H789.21L778.767 51.2829L768.239 24.6232H757.371L773.588 64.358L766.286 82.867Z" fill="#919191"/>
<path d="M3.9242 169.075H15.3013V126.623L43.9138 169.075H56.3946V110.831H45.0175V153.198L16.405 110.831H3.9242V169.075Z" fill="#919191"/>
<path d="M67.1873 169.075H78.5643V144.283H103.611V134.095H78.5643V121.02H106.667V110.831H67.1873V169.075Z" fill="#919191"/>
<path d="M128.214 169.075H139.591V121.02H156.402V110.831H111.403V121.02H128.214V169.075Z" fill="#919191"/>
<path d="M208.188 125.435C203.009 125.435 197.32 127.812 194.094 131.293V126.623H183.906V184.867H194.094V164.405C197.32 167.886 203.009 170.264 208.188 170.264C221.603 170.264 230.603 161.264 230.603 147.849C230.603 134.434 221.603 125.435 208.188 125.435ZM207.169 134.434C215.15 134.434 220.414 139.783 220.414 147.849C220.414 155.915 215.15 161.264 207.169 161.264C199.358 161.264 194.094 155.915 194.094 147.849C194.094 139.783 199.358 134.434 207.169 134.434Z" fill="#919191"/>
<path d="M277.815 126.623H267.626V151.84C267.626 157.528 263.466 161.264 257.268 161.264C251.07 161.264 246.91 157.528 246.91 151.84V126.623H236.722V153.028C236.722 163.386 244.448 170.264 256.08 170.264C260.24 170.264 264.825 168.565 267.626 165.933V169.075H277.815V126.623Z" fill="#919191"/>
<path d="M284.112 169.075H320.621V160.075H298.037L320.621 133.415V126.623H284.112V135.623H306.697L284.112 162.283V169.075Z" fill="#919191"/>
<path d="M325.403 169.075H361.912V160.075H339.328L361.912 133.415V126.623H325.403V135.623H347.988L325.403 162.283V169.075Z" fill="#919191"/>
<path d="M368.223 169.075H378.411V110.831H368.223V169.075Z" fill="#919191"/>
<path d="M407.526 170.264C417.884 170.264 426.714 163.981 429.516 154.641H419.157C417.205 158.887 412.535 161.773 407.526 161.773C400.903 161.773 395.809 157.358 394.875 150.651H429.685L430.534 149.802V147.849C430.534 134.434 421.365 125.435 407.526 125.435C393.686 125.435 384.517 134.434 384.517 147.849C384.517 161.264 393.686 170.264 407.526 170.264ZM395.554 142.16C397.507 136.896 401.837 133.925 407.526 133.925C413.214 133.925 417.544 136.896 419.497 142.16H395.554Z" fill="#919191"/>
</g>
<g opacity="0.05">
<path d="M17.339 74.1504H29.9896L38.2252 36.7079L46.376 74.1504H59.1115L75.4979 15.9065H63.7812L52.9984 59.3771L43.7439 15.9065H32.6216L23.3671 59.3771L12.6693 15.9065H0.867676L17.339 74.1504Z" fill="#919191"/>
<path d="M96.5997 75.339C110.439 75.339 119.609 66.3392 119.609 52.9245C119.609 39.5097 110.439 30.51 96.5997 30.51C82.7604 30.51 73.5908 39.5097 73.5908 52.9245C73.5908 66.3392 82.7604 75.339 96.5997 75.339ZM96.5997 66.3392C88.8735 66.3392 83.7793 60.9903 83.7793 52.9245C83.7793 44.8586 88.8735 39.5097 96.5997 39.5097C104.326 39.5097 109.42 44.8586 109.42 52.9245C109.42 60.9903 104.326 66.3392 96.5997 66.3392Z" fill="#919191"/>
<path d="M124.871 74.1504H135.06V49.0189C135.06 43.3304 139.56 39.5097 146.352 39.5097H149.833V31.6986C148.644 31.1892 146.861 30.8496 145.333 30.8496C141.427 30.8496 137.267 33.2269 135.06 36.7079V31.6986H124.871V74.1504Z" fill="#919191"/>
<path d="M156.13 74.1504H166.318V15.9065H156.13V74.1504Z" fill="#919191"/>
<path d="M194.838 75.339C200.017 75.339 205.706 72.9617 208.932 69.4807V74.1504H219.121V15.9065H208.932V36.3683C205.706 32.8872 200.017 30.51 194.838 30.51C181.424 30.51 172.424 39.5097 172.424 52.9245C172.424 66.3392 181.424 75.339 194.838 75.339ZM195.857 66.3392C187.876 66.3392 182.612 60.9903 182.612 52.9245C182.612 44.8586 187.876 39.5097 195.857 39.5097C203.668 39.5097 208.932 44.8586 208.932 52.9245C208.932 60.9903 203.668 66.3392 195.857 66.3392Z" fill="#919191"/>
<path d="M226.938 41.1229C234.494 41.1229 239.504 36.0287 239.504 28.4723V15.9065H226.938V28.4723H231.353C231.353 31.1043 229.57 32.8872 226.938 32.8872V41.1229Z" fill="#919191"/>
<path d="M257.706 75.339C269.508 75.339 277.404 69.7354 277.404 61.3299C277.404 53.6037 272.904 50.3774 258.725 47.4057C252.697 46.0473 250.744 44.9435 250.744 43.1606C250.744 40.6984 253.546 39.0003 257.706 39.0003C261.442 39.0003 264.838 40.9531 266.112 43.8398L275.451 41.5474C272.989 34.9249 265.857 30.51 257.706 30.51C247.433 30.51 240.556 35.774 240.556 43.67C240.556 50.717 244.461 53.5188 256.772 56.3206C264.668 57.8489 267.215 59.2922 267.215 61.3299C267.215 64.6412 263.395 66.8486 257.706 66.8486C252.018 66.8486 247.942 63.9619 247.603 59.7168H238.008C238.348 69.0561 246.244 75.339 257.706 75.339Z" fill="#919191"/>
<path d="M331.75 31.6986H318.505V26.944C318.505 24.3969 319.694 23.2082 322.241 23.2082H326.825V15.9065C325.467 15.2273 323.09 14.7179 320.797 14.7179C313.326 14.7179 308.317 19.6423 308.317 27.0289V31.6986H301.524V40.1889H308.317V74.1504H318.505V40.1889H330.731V74.1504H340.919V31.6986H331.75ZM330.731 15.9065V25.2459H340.919V15.9065H330.731Z" fill="#919191"/>
<path d="M348.738 74.1504H358.926V49.0189C358.926 43.3304 363.426 39.5097 370.218 39.5097H373.7V31.6986C372.511 31.1892 370.728 30.8496 369.2 30.8496C365.294 30.8496 361.134 33.2269 358.926 36.7079V31.6986H348.738V74.1504Z" fill="#919191"/>
<path d="M393.767 75.339C405.569 75.339 413.465 69.7354 413.465 61.3299C413.465 53.6037 408.965 50.3774 394.786 47.4057C388.758 46.0473 386.805 44.9435 386.805 43.1606C386.805 40.6984 389.607 39.0003 393.767 39.0003C397.503 39.0003 400.899 40.9531 402.173 43.8398L411.512 41.5474C409.05 34.9249 401.918 30.51 393.767 30.51C383.494 30.51 376.617 35.774 376.617 43.67C376.617 50.717 380.522 53.5188 392.833 56.3206C400.729 57.8489 403.276 59.2922 403.276 61.3299C403.276 64.6412 399.456 66.8486 393.767 66.8486C388.079 66.8486 384.003 63.9619 383.664 59.7168H374.07C374.409 69.0561 382.305 75.339 393.767 75.339Z" fill="#919191"/>
<path d="M437.246 75.339C440.048 75.339 442.934 74.8296 444.463 74.1504V66.8486H437.076C434.868 66.8486 433.34 65.4053 433.34 63.2827V40.1889H444.038V31.6986H433.34V15.9065H423.152V31.6986H416.36V40.1889H423.152V63.2827C423.152 70.4995 428.755 75.339 437.246 75.339Z" fill="#919191"/>
<path d="M490.666 75.339C495.675 75.339 501.194 73.0466 504.42 69.5656V74.1504H514.609V31.6986H504.42V36.2834C501.194 32.8023 495.675 30.51 490.666 30.51C477.421 30.51 468.591 39.5097 468.591 52.9245C468.591 66.3392 477.421 75.339 490.666 75.339ZM491.685 66.3392C483.959 66.3392 478.78 60.9903 478.78 52.9245C478.78 44.8586 483.959 39.5097 491.685 39.5097C499.326 39.5097 504.42 44.8586 504.42 52.9245C504.42 60.9903 499.326 66.3392 491.685 66.3392Z" fill="#919191"/>
<path d="M522.442 74.1504H532.63V48.934C532.63 43.2455 536.791 39.5097 542.989 39.5097C549.186 39.5097 553.347 43.2455 553.347 48.934V74.1504H563.535V47.7454C563.535 37.3871 555.809 30.51 544.177 30.51C540.017 30.51 535.432 32.208 532.63 34.84V31.6986H522.442V74.1504Z" fill="#919191"/>
<path d="M591.248 75.339C596.427 75.339 602.116 72.9617 605.342 69.4807V74.1504H615.531V15.9065H605.342V36.3683C602.116 32.8872 596.427 30.51 591.248 30.51C577.833 30.51 568.834 39.5097 568.834 52.9245C568.834 66.3392 577.833 75.339 591.248 75.339ZM592.267 66.3392C584.286 66.3392 579.022 60.9903 579.022 52.9245C579.022 44.8586 584.286 39.5097 592.267 39.5097C600.078 39.5097 605.342 44.8586 605.342 52.9245C605.342 60.9903 600.078 66.3392 592.267 66.3392Z" fill="#919191"/>
<path d="M664.226 75.339C678.065 75.339 687.235 66.3392 687.235 52.9245C687.235 39.5097 678.065 30.51 664.226 30.51C650.387 30.51 641.217 39.5097 641.217 52.9245C641.217 66.3392 650.387 75.339 664.226 75.339ZM664.226 66.3392C656.5 66.3392 651.406 60.9903 651.406 52.9245C651.406 44.8586 656.5 39.5097 664.226 39.5097C671.952 39.5097 677.046 44.8586 677.046 52.9245C677.046 60.9903 671.952 66.3392 664.226 66.3392Z" fill="#919191"/>
<path d="M692.498 74.1504H702.686V48.934C702.686 43.2455 706.846 39.5097 713.044 39.5097C719.242 39.5097 723.402 43.2455 723.402 48.934V74.1504H733.591V47.7454C733.591 37.3871 725.865 30.51 714.233 30.51C710.073 30.51 705.488 32.208 702.686 34.84V31.6986H692.498V74.1504Z" fill="#919191"/>
<path d="M741.417 74.1504H751.605V15.9065H741.417V74.1504Z" fill="#919191"/>
<path d="M766.286 89.9424H777.239L800.163 31.6986H789.21L778.767 58.3583L768.239 31.6986H757.371L773.588 71.4334L766.286 89.9424Z" fill="#919191"/>
<path d="M3.9242 176.15H15.3013V133.699L43.9138 176.15H56.3946V117.907H45.0175V160.273L16.405 117.907H3.9242V176.15Z" fill="#919191"/>
<path d="M67.1873 176.15H78.5643V151.359H103.611V141.17H78.5643V128.095H106.667V117.907H67.1873V176.15Z" fill="#919191"/>
<path d="M128.214 176.15H139.591V128.095H156.402V117.907H111.403V128.095H128.214V176.15Z" fill="#919191"/>
<path d="M208.188 132.51C203.009 132.51 197.32 134.887 194.094 138.368V133.699H183.906V191.942H194.094V171.481C197.32 174.962 203.009 177.339 208.188 177.339C221.603 177.339 230.603 168.339 230.603 154.924C230.603 141.51 221.603 132.51 208.188 132.51ZM207.169 141.51C215.15 141.51 220.414 146.859 220.414 154.924C220.414 162.99 215.15 168.339 207.169 168.339C199.358 168.339 194.094 162.99 194.094 154.924C194.094 146.859 199.358 141.51 207.169 141.51Z" fill="#919191"/>
<path d="M277.815 133.699H267.626V158.915C267.626 164.603 263.466 168.339 257.268 168.339C251.07 168.339 246.91 164.603 246.91 158.915V133.699H236.722V160.104C236.722 170.462 244.448 177.339 256.08 177.339C260.24 177.339 264.825 175.641 267.626 173.009V176.15H277.815V133.699Z" fill="#919191"/>
<path d="M284.112 176.15H320.621V167.151H298.037L320.621 140.491V133.699H284.112V142.698H306.697L284.112 169.358V176.15Z" fill="#919191"/>
<path d="M325.403 176.15H361.912V167.151H339.328L361.912 140.491V133.699H325.403V142.698H347.988L325.403 169.358V176.15Z" fill="#919191"/>
<path d="M368.223 176.15H378.411V117.907H368.223V176.15Z" fill="#919191"/>
<path d="M407.526 177.339C417.884 177.339 426.714 171.056 429.516 161.717H419.157C417.205 165.962 412.535 168.849 407.526 168.849C400.903 168.849 395.809 164.434 394.875 157.726H429.685L430.534 156.877V154.924C430.534 141.51 421.365 132.51 407.526 132.51C393.686 132.51 384.517 141.51 384.517 154.924C384.517 168.339 393.686 177.339 407.526 177.339ZM395.554 149.236C397.507 143.972 401.837 141 407.526 141C413.214 141 417.544 143.972 419.497 149.236H395.554Z" fill="#919191"/>
</g>
<g opacity="0.05">
<path d="M17.339 81.2257H29.9896L38.2252 43.7832L46.376 81.2257H59.1115L75.4979 22.9819H63.7812L52.9984 66.4525L43.7439 22.9819H32.6216L23.3671 66.4525L12.6693 22.9819H0.867676L17.339 81.2257Z" fill="#919191"/>
<path d="M96.5997 82.4143C110.439 82.4143 119.609 73.4145 119.609 59.9998C119.609 46.585 110.439 37.5853 96.5997 37.5853C82.7604 37.5853 73.5908 46.585 73.5908 59.9998C73.5908 73.4145 82.7604 82.4143 96.5997 82.4143ZM96.5997 73.4145C88.8735 73.4145 83.7793 68.0656 83.7793 59.9998C83.7793 51.934 88.8735 46.585 96.5997 46.585C104.326 46.585 109.42 51.934 109.42 59.9998C109.42 68.0656 104.326 73.4145 96.5997 73.4145Z" fill="#919191"/>
<path d="M124.871 81.2257H135.06V56.0942C135.06 50.4057 139.56 46.585 146.352 46.585H149.833V38.7739C148.644 38.2645 146.861 37.9249 145.333 37.9249C141.427 37.9249 137.267 40.3022 135.06 43.7832V38.7739H124.871V81.2257Z" fill="#919191"/>
<path d="M156.13 81.2257H166.318V22.9819H156.13V81.2257Z" fill="#919191"/>
<path d="M194.838 82.4143C200.017 82.4143 205.706 80.037 208.932 76.556V81.2257H219.121V22.9819H208.932V43.4436C205.706 39.9626 200.017 37.5853 194.838 37.5853C181.424 37.5853 172.424 46.585 172.424 59.9998C172.424 73.4145 181.424 82.4143 194.838 82.4143ZM195.857 73.4145C187.876 73.4145 182.612 68.0656 182.612 59.9998C182.612 51.934 187.876 46.585 195.857 46.585C203.668 46.585 208.932 51.934 208.932 59.9998C208.932 68.0656 203.668 73.4145 195.857 73.4145Z" fill="#919191"/>
<path d="M226.938 48.1982C234.494 48.1982 239.504 43.104 239.504 35.5476V22.9819H226.938V35.5476H231.353C231.353 38.1796 229.57 39.9626 226.938 39.9626V48.1982Z" fill="#919191"/>
<path d="M257.706 82.4143C269.508 82.4143 277.404 76.8107 277.404 68.4052C277.404 60.679 272.904 57.4527 258.725 54.4811C252.697 53.1226 250.744 52.0189 250.744 50.2359C250.744 47.7737 253.546 46.0756 257.706 46.0756C261.442 46.0756 264.838 48.0284 266.112 50.9151L275.451 48.6227C272.989 42.0002 265.857 37.5853 257.706 37.5853C247.433 37.5853 240.556 42.8493 240.556 50.7453C240.556 57.7923 244.461 60.5941 256.772 63.3959C264.668 64.9242 267.215 66.3676 267.215 68.4052C267.215 71.7165 263.395 73.924 257.706 73.924C252.018 73.924 247.942 71.0373 247.603 66.7921H238.008C238.348 76.1315 246.244 82.4143 257.706 82.4143Z" fill="#919191"/>
<path d="M331.75 38.7739H318.505V34.0193C318.505 31.4722 319.694 30.2836 322.241 30.2836H326.825V22.9819C325.467 22.3026 323.09 21.7932 320.797 21.7932C313.326 21.7932 308.317 26.7176 308.317 34.1042V38.7739H301.524V47.2643H308.317V81.2257H318.505V47.2643H330.731V81.2257H340.919V38.7739H331.75ZM330.731 22.9819V32.3212H340.919V22.9819H330.731Z" fill="#919191"/>
<path d="M348.738 81.2257H358.926V56.0942C358.926 50.4057 363.426 46.585 370.218 46.585H373.7V38.7739C372.511 38.2645 370.728 37.9249 369.2 37.9249C365.294 37.9249 361.134 40.3022 358.926 43.7832V38.7739H348.738V81.2257Z" fill="#919191"/>
<path d="M393.767 82.4143C405.569 82.4143 413.465 76.8107 413.465 68.4052C413.465 60.679 408.965 57.4527 394.786 54.4811C388.758 53.1226 386.805 52.0189 386.805 50.2359C386.805 47.7737 389.607 46.0756 393.767 46.0756C397.503 46.0756 400.899 48.0284 402.173 50.9151L411.512 48.6227C409.05 42.0002 401.918 37.5853 393.767 37.5853C383.494 37.5853 376.617 42.8493 376.617 50.7453C376.617 57.7923 380.522 60.5941 392.833 63.3959C400.729 64.9242 403.276 66.3676 403.276 68.4052C403.276 71.7165 399.456 73.924 393.767 73.924C388.079 73.924 384.003 71.0373 383.664 66.7921H374.07C374.409 76.1315 382.305 82.4143 393.767 82.4143Z" fill="#919191"/>
<path d="M437.246 82.4143C440.048 82.4143 442.934 81.9049 444.463 81.2257V73.924H437.076C434.868 73.924 433.34 72.4806 433.34 70.358V47.2643H444.038V38.7739H433.34V22.9819H423.152V38.7739H416.36V47.2643H423.152V70.358C423.152 77.5748 428.755 82.4143 437.246 82.4143Z" fill="#919191"/>
<path d="M490.666 82.4143C495.675 82.4143 501.194 80.1219 504.42 76.6409V81.2257H514.609V38.7739H504.42V43.3587C501.194 39.8777 495.675 37.5853 490.666 37.5853C477.421 37.5853 468.591 46.585 468.591 59.9998C468.591 73.4145 477.421 82.4143 490.666 82.4143ZM491.685 73.4145C483.959 73.4145 478.78 68.0656 478.78 59.9998C478.78 51.934 483.959 46.585 491.685 46.585C499.326 46.585 504.42 51.934 504.42 59.9998C504.42 68.0656 499.326 73.4145 491.685 73.4145Z" fill="#919191"/>
<path d="M522.442 81.2257H532.63V56.0093C532.63 50.3208 536.791 46.585 542.989 46.585C549.186 46.585 553.347 50.3208 553.347 56.0093V81.2257H563.535V54.8207C563.535 44.4625 555.809 37.5853 544.177 37.5853C540.017 37.5853 535.432 39.2833 532.63 41.9153V38.7739H522.442V81.2257Z" fill="#919191"/>
<path d="M591.248 82.4143C596.427 82.4143 602.116 80.037 605.342 76.556V81.2257H615.531V22.9819H605.342V43.4436C602.116 39.9626 596.427 37.5853 591.248 37.5853C577.833 37.5853 568.834 46.585 568.834 59.9998C568.834 73.4145 577.833 82.4143 591.248 82.4143ZM592.267 73.4145C584.286 73.4145 579.022 68.0656 579.022 59.9998C579.022 51.934 584.286 46.585 592.267 46.585C600.078 46.585 605.342 51.934 605.342 59.9998C605.342 68.0656 600.078 73.4145 592.267 73.4145Z" fill="#919191"/>
<path d="M664.226 82.4143C678.065 82.4143 687.235 73.4145 687.235 59.9998C687.235 46.585 678.065 37.5853 664.226 37.5853C650.387 37.5853 641.217 46.585 641.217 59.9998C641.217 73.4145 650.387 82.4143 664.226 82.4143ZM664.226 73.4145C656.5 73.4145 651.406 68.0656 651.406 59.9998C651.406 51.934 656.5 46.585 664.226 46.585C671.952 46.585 677.046 51.934 677.046 59.9998C677.046 68.0656 671.952 73.4145 664.226 73.4145Z" fill="#919191"/>
<path d="M692.498 81.2257H702.686V56.0093C702.686 50.3208 706.846 46.585 713.044 46.585C719.242 46.585 723.402 50.3208 723.402 56.0093V81.2257H733.591V54.8207C733.591 44.4625 725.865 37.5853 714.233 37.5853C710.073 37.5853 705.488 39.2833 702.686 41.9153V38.7739H692.498V81.2257Z" fill="#919191"/>
<path d="M741.417 81.2257H751.605V22.9819H741.417V81.2257Z" fill="#919191"/>
<path d="M766.286 97.0177H777.239L800.163 38.7739H789.21L778.767 65.4336L768.239 38.7739H757.371L773.588 78.5088L766.286 97.0177Z" fill="#919191"/>
<path d="M3.9242 183.226H15.3013V140.774L43.9138 183.226H56.3946V124.982H45.0175V167.349L16.405 124.982H3.9242V183.226Z" fill="#919191"/>
<path d="M67.1873 183.226H78.5643V158.434H103.611V148.245H78.5643V135.17H106.667V124.982H67.1873V183.226Z" fill="#919191"/>
<path d="M128.214 183.226H139.591V135.17H156.402V124.982H111.403V135.17H128.214V183.226Z" fill="#919191"/>
<path d="M208.188 139.585C203.009 139.585 197.32 141.963 194.094 145.444V140.774H183.906V199.018H194.094V178.556C197.32 182.037 203.009 184.414 208.188 184.414C221.603 184.414 230.603 175.415 230.603 162C230.603 148.585 221.603 139.585 208.188 139.585ZM207.169 148.585C215.15 148.585 220.414 153.934 220.414 162C220.414 170.066 215.15 175.415 207.169 175.415C199.358 175.415 194.094 170.066 194.094 162C194.094 153.934 199.358 148.585 207.169 148.585Z" fill="#919191"/>
<path d="M277.815 140.774H267.626V165.99C267.626 171.679 263.466 175.415 257.268 175.415C251.07 175.415 246.91 171.679 246.91 165.99V140.774H236.722V167.179C236.722 177.537 244.448 184.414 256.08 184.414C260.24 184.414 264.825 182.716 267.626 180.084V183.226H277.815V140.774Z" fill="#919191"/>
<path d="M284.112 183.226H320.621V174.226H298.037L320.621 147.566V140.774H284.112V149.774H306.697L284.112 176.433V183.226Z" fill="#919191"/>
<path d="M325.403 183.226H361.912V174.226H339.328L361.912 147.566V140.774H325.403V149.774H347.988L325.403 176.433V183.226Z" fill="#919191"/>
<path d="M368.223 183.226H378.411V124.982H368.223V183.226Z" fill="#919191"/>
<path d="M407.526 184.414C417.884 184.414 426.714 178.131 429.516 168.792H419.157C417.205 173.037 412.535 175.924 407.526 175.924C400.903 175.924 395.809 171.509 394.875 164.802H429.685L430.534 163.953V162C430.534 148.585 421.365 139.585 407.526 139.585C393.686 139.585 384.517 148.585 384.517 162C384.517 175.415 393.686 184.414 407.526 184.414ZM395.554 156.311C397.507 151.047 401.837 148.076 407.526 148.076C413.214 148.076 417.544 151.047 419.497 156.311H395.554Z" fill="#919191"/>
</g>
</g>
</svg>
