<svg width="27" height="26" viewBox="0 0 27 26" fill="none" xmlns="http://www.w3.org/2000/svg">
<path d="M20.0339 8.13855C19.5587 7.84183 18.9477 7.84183 18.4046 8.13855L14.603 10.5865L12.0234 12.1442L8.28973 14.5922C7.81453 14.8889 7.20357 14.8889 6.66048 14.5922L3.74142 12.6635C3.26623 12.3668 2.9268 11.7733 2.9268 11.1057V7.39675C2.9268 6.80332 3.19834 6.20988 3.74142 5.83898L6.66048 3.98449C7.13568 3.68777 7.74665 3.68777 8.28973 3.98449L11.2088 5.91316C11.684 6.20988 12.0234 6.80332 12.0234 7.47093V9.91886L14.603 8.28691V5.7648C14.603 5.17136 14.3315 4.57793 13.7884 4.20703L8.35761 0.720586C7.88242 0.423867 7.27145 0.423867 6.72837 0.720586L1.16179 4.28121C0.618708 4.57793 0.347168 5.17136 0.347168 5.7648V12.7377C0.347168 13.3311 0.618708 13.9246 1.16179 14.2955L6.66048 17.7819C7.13568 18.0786 7.74665 18.0786 8.28973 17.7819L12.0234 15.4082L14.603 13.7762L18.3367 11.4025C18.8119 11.1057 19.4229 11.1057 19.966 11.4025L22.885 13.2569C23.3602 13.5537 23.6996 14.1471 23.6996 14.8147V18.5237C23.6996 19.1171 23.4281 19.7106 22.885 20.0815L20.0339 21.936C19.5587 22.2327 18.9477 22.2327 18.4046 21.936L15.4855 20.0815C15.0104 19.7847 14.6709 19.1913 14.6709 18.5237V16.1499L12.0913 17.7819V20.2298C12.0913 20.8233 12.3628 21.4167 12.9059 21.7876L18.4046 25.274C18.8798 25.5708 19.4908 25.5708 20.0339 25.274L25.5325 21.7876C26.0077 21.4909 26.3472 20.8974 26.3472 20.2298V13.1828C26.3472 12.5893 26.0756 11.9959 25.5325 11.625L20.0339 8.13855Z" fill="#8247E5"/>
</svg>
